<?xml version="1.0" encoding="utf-8"?>
<!-- Generator: Adobe Illustrator 27.9.0, SVG Export Plug-In . SVG Version: 6.00 Build 0)  -->
<svg version="1.1" id="Layer_1" xmlns="http://www.w3.org/2000/svg" xmlns:xlink="http://www.w3.org/1999/xlink" x="0px" y="0px"
	 viewBox="0 0 823.4 1000" style="enable-background:new 0 0 823.4 1000;" xml:space="preserve">
<style type="text/css">
	.st0{fill:none;stroke:#000000;stroke-width:61;stroke-linecap:round;stroke-linejoin:round;stroke-miterlimit:10;}
	.st1{fill:none;stroke:#000000;stroke-width:61;stroke-miterlimit:10;}
</style>
<g>
	<path d="M772.6,845.5c-25.4,0-47.4-19.1-50.4-45L649,163c-0.2-1.9-0.3-3.9-0.3-5.8c0-30.7-25-55.7-55.7-55.7H240.4
		c-30.7,0-55.7,25-55.7,55.7c0,2.2-0.1,4.4-0.4,6.6l-59.1,452.5c-3.6,27.8-29.1,47.4-56.9,43.8c-27.8-3.6-47.4-29.1-43.8-56.9
		l58.7-449.6C85.2,68.6,154.9,0,240.4,0H593c85.6,0,155.5,68.8,157.2,154l72.9,634.9c3.2,27.8-16.8,53-44.6,56.2
		C776.5,845.4,774.5,845.5,772.6,845.5z"/>
	<path d="M411.7,951.9H157.2C70.5,951.9,0,881.4,0,794.7c0-28,22.7-50.8,50.8-50.8s50.8,22.7,50.8,50.8c0,30.7,25,55.7,55.7,55.7
		h254.5c28,0,50.8,22.7,50.8,50.8S439.7,951.9,411.7,951.9z"/>
	<circle cx="411.7" cy="901.2" r="98.8"/>
	<path d="M750.3,840.3c-78.6-38.7-162.6-62.9-249.9-71.9c-70.3-7.3-142.9-4.8-215.8,7.3C159,796.5,74.9,839.4,74.1,839.8l-46.8-90.1
		c3.9-2,96.4-49.6,236.7-73.5c82.3-14,164.6-17.1,244.4-9c100.1,10.1,196.6,37.7,286.7,82.1L750.3,840.3z"/>
</g>
</svg>
