<svg id="Layer_1" data-name="Layer 1" xmlns="http://www.w3.org/2000/svg" viewBox="0 0 71.74 13.02"><defs><style>.cls-1{fill:#231f20;}.cls-2{fill:#f26f71;}</style></defs><path class="cls-1" d="M.66,5.38A4.28,4.28,0,0,1,2.38,3.65,5.16,5.16,0,0,1,4.9,3a4.76,4.76,0,0,1,3,1A4.49,4.49,0,0,1,9.55,6.68H6.39A1.51,1.51,0,0,0,4.85,5.57a1.54,1.54,0,0,0-1.3.64A2.93,2.93,0,0,0,3.06,8a3,3,0,0,0,.49,1.81,1.56,1.56,0,0,0,1.3.63A1.51,1.51,0,0,0,6.39,9.35H9.55A4.6,4.6,0,0,1,7.93,12a4.72,4.72,0,0,1-3,1,5.06,5.06,0,0,1-2.52-.61A4.28,4.28,0,0,1,.66,10.65,5.41,5.41,0,0,1,.05,8,5.42,5.42,0,0,1,.66,5.38Z"/><path class="cls-1" d="M13,12.38a4.45,4.45,0,0,1-1.79-1.73A5.21,5.21,0,0,1,10.53,8a5.14,5.14,0,0,1,.66-2.63A4.43,4.43,0,0,1,13,3.65,5.48,5.48,0,0,1,15.56,3a5.41,5.41,0,0,1,2.56.61,4.4,4.4,0,0,1,1.81,1.74A5.14,5.14,0,0,1,20.59,8a5.1,5.1,0,0,1-.67,2.62,4.48,4.48,0,0,1-1.82,1.74,5.4,5.4,0,0,1-2.58.61A5.28,5.28,0,0,1,13,12.38ZM17,9.8A2.46,2.46,0,0,0,17.57,8,2.52,2.52,0,0,0,17,6.23a2,2,0,0,0-2.87,0A2.56,2.56,0,0,0,13.55,8a2.58,2.58,0,0,0,.56,1.78,1.83,1.83,0,0,0,1.41.63A1.92,1.92,0,0,0,17,9.8Z"/><path class="cls-1" d="M22.14,5.38a4.11,4.11,0,0,1,1.53-1.73A4.06,4.06,0,0,1,25.84,3a3.9,3.9,0,0,1,1.74.4,3.27,3.27,0,0,1,1.24,1.08V0h3V12.85h-3V11.47a3.11,3.11,0,0,1-1.19,1.11,3.78,3.78,0,0,1-1.79.41,4,4,0,0,1-2.17-.61,4.22,4.22,0,0,1-1.53-1.75A5.82,5.82,0,0,1,21.57,8,5.74,5.74,0,0,1,22.14,5.38Zm6.06.89a2,2,0,0,0-1.5-.64,2,2,0,0,0-1.5.63A2.38,2.38,0,0,0,24.59,8a2.45,2.45,0,0,0,.61,1.76,2.07,2.07,0,0,0,3,0A2.43,2.43,0,0,0,28.82,8,2.41,2.41,0,0,0,28.2,6.27Z"/><path class="cls-1" d="M38.25,13a5.2,5.2,0,0,1-2.55-.61A4.32,4.32,0,0,1,34,10.65,5.41,5.41,0,0,1,33.34,8,5.42,5.42,0,0,1,34,5.38a4.22,4.22,0,0,1,1.72-1.73A5.28,5.28,0,0,1,38.23,3a5.18,5.18,0,0,1,2.49.59,4.32,4.32,0,0,1,1.71,1.68,5.12,5.12,0,0,1,.62,2.55,6.58,6.58,0,0,1-.06.87h-6.7a2,2,0,0,0,.58,1.38,2.09,2.09,0,0,0,1.38.43M40,7.08a1.5,1.5,0,0,0-.52-1.21,1.9,1.9,0,0,0-1.3-.45,1.86,1.86,0,0,0-1.25.43,2,2,0,0,0-.64,1.23Z"/><path class="cls-1" d="M49,0,46.11,12.85h-3L46.07,0Z"/><path class="cls-1" d="M49.69,5.38a4.2,4.2,0,0,1,1.54-1.73A4,4,0,0,1,53.39,3a3.74,3.74,0,0,1,1.8.42,3,3,0,0,1,1.18,1.09V3.18h3v9.67h-3V11.48a3.27,3.27,0,0,1-1.2,1.1,3.78,3.78,0,0,1-1.79.41,3.91,3.91,0,0,1-2.15-.61,4.32,4.32,0,0,1-1.54-1.75A6,6,0,0,1,49.13,8,5.87,5.87,0,0,1,49.69,5.38Zm6.07.89a2,2,0,0,0-1.5-.64,2,2,0,0,0-1.5.63A2.39,2.39,0,0,0,52.14,8a2.45,2.45,0,0,0,.62,1.76,2.07,2.07,0,0,0,3,0A2.42,2.42,0,0,0,56.37,8,2.41,2.41,0,0,0,55.76,6.27Z"/><path class="cls-1" d="M65.65,3.46A3.69,3.69,0,0,1,67.43,3a4.06,4.06,0,0,1,2.17.61,4.24,4.24,0,0,1,1.53,1.73A5.74,5.74,0,0,1,71.69,8a5.81,5.81,0,0,1-.56,2.63,4.37,4.37,0,0,1-1.53,1.75,4,4,0,0,1-2.17.61,3.71,3.71,0,0,1-1.78-.41,3.14,3.14,0,0,1-1.2-1.08v1.35h-3V0h3V4.55A3,3,0,0,1,65.65,3.46Zm2.41,2.8a2,2,0,0,0-1.51-.63,2,2,0,0,0-1.5.64A2.41,2.41,0,0,0,64.43,8a2.43,2.43,0,0,0,.62,1.75,2.07,2.07,0,0,0,3,0A2.42,2.42,0,0,0,68.68,8,2.39,2.39,0,0,0,68.06,6.26Z"/><circle class="cls-2" cx="40.66" cy="11.6" r="1.39"/></svg>