<svg width="720" height="254" viewBox="0 0 720 254" fill="none" xmlns="http://www.w3.org/2000/svg">
<g clip-path="url(#clip0)">
<path d="M206.575 203.439C206.575 231.06 228.966 253.451 256.588 253.451C284.209 253.451 306.601 231.06 306.601 203.439C306.601 175.817 284.209 153.426 256.588 153.426C228.966 153.426 206.575 175.817 206.575 203.439Z" fill="#FF0200"/>
<path d="M255.199 189.545C257.757 189.545 259.83 187.472 259.83 184.914C259.83 182.356 257.757 180.283 255.199 180.283C252.642 180.283 250.568 182.356 250.568 184.914C250.568 187.472 252.642 189.545 255.199 189.545Z" fill="white"/>
<path d="M273.675 209.932C273.571 209.407 273.287 208.935 272.873 208.596C272.46 208.256 271.942 208.071 271.406 208.07H261.837L260.844 201.124H271.406V196.493H260.184L259.806 193.849C259.727 193.297 259.452 192.793 259.031 192.428C258.61 192.063 258.071 191.862 257.514 191.862H255.199C254.867 191.863 254.54 191.935 254.238 192.074C253.937 192.212 253.669 192.413 253.451 192.663C253.234 192.914 253.073 193.208 252.979 193.526C252.885 193.844 252.86 194.178 252.906 194.506L254.937 208.728C255.099 209.829 255.651 210.835 256.492 211.565C257.333 212.293 258.408 212.697 259.521 212.701H269.508L271.45 222.416C271.668 223.498 272.617 224.278 273.722 224.278H280.668V219.647H275.618L273.675 209.932Z" fill="white"/>
<path d="M263.324 216.174C261.613 219.591 258.115 221.962 254.039 221.962C251.277 221.959 248.629 220.86 246.675 218.907C244.722 216.954 243.623 214.305 243.62 211.543C243.624 209.468 244.247 207.442 245.409 205.723C246.57 204.005 248.219 202.671 250.142 201.895L249.473 197.206C243.4 199.144 238.989 204.838 238.989 211.543C238.989 219.841 245.741 226.593 254.039 226.593C256.62 226.589 259.158 225.922 261.406 224.654C263.655 223.387 265.539 221.562 266.878 219.355L266.244 216.174H263.324Z" fill="white"/>
</g>
<g clip-path="url(#clip1)">
<path d="M464.65 253.451C491.318 253.451 512.938 231.06 512.938 203.439C512.938 175.817 491.318 153.426 464.65 153.426C437.981 153.426 416.361 175.817 416.361 203.439C416.361 231.06 437.981 253.451 464.65 253.451Z" fill="#FF0200"/>
<path fill-rule="evenodd" clip-rule="evenodd" d="M473.371 181.4C473.634 181.558 473.837 181.803 473.947 182.096C474.058 182.388 474.07 182.711 473.98 183.012L469.149 199.271H478.063C478.325 199.271 478.581 199.35 478.801 199.499C479.019 199.648 479.191 199.861 479.295 200.11C479.399 200.359 479.43 200.634 479.385 200.901C479.339 201.168 479.219 201.416 479.04 201.614L457.578 225.231C457.371 225.459 457.094 225.608 456.794 225.654C456.494 225.699 456.188 225.638 455.926 225.48C455.665 225.322 455.462 225.077 455.352 224.784C455.241 224.492 455.23 224.169 455.319 223.869L460.151 207.607H451.236C450.975 207.607 450.718 207.527 450.499 207.379C450.28 207.23 450.108 207.018 450.004 206.768C449.901 206.519 449.869 206.244 449.915 205.977C449.96 205.71 450.08 205.462 450.26 205.264L471.721 181.647C471.929 181.419 472.205 181.27 472.504 181.225C472.804 181.179 473.109 181.24 473.371 181.397V181.4Z" fill="white"/>
</g>
<g clip-path="url(#clip2)">
<path d="M-0.000228882 205.103C-0.000228882 231.806 22.4479 253.452 50.139 253.452C77.8302 253.452 100.278 231.806 100.278 205.103C100.278 178.401 77.8302 156.755 50.139 156.755C22.4479 156.755 -0.000228882 178.401 -0.000228882 205.103Z" fill="#FF0200"/>
</g>
<g clip-path="url(#clip3)">
<path d="M669.861 253.704C697.552 253.704 720 231.256 720 203.565C720 175.874 697.552 153.426 669.861 153.426C642.17 153.426 619.722 175.874 619.722 203.565C619.722 231.256 642.17 253.704 669.861 253.704Z" fill="#FF0200"/>
<path d="M689.96 197.21L677.077 195.25L671.318 183.023C671.16 182.688 670.902 182.417 670.582 182.253C669.78 181.838 668.806 182.183 668.405 183.023L662.646 195.25L649.762 197.21C649.407 197.264 649.082 197.439 648.834 197.704C648.533 198.028 648.367 198.463 648.373 198.915C648.379 199.366 648.555 199.797 648.864 200.112L658.186 209.628L655.983 223.067C655.932 223.379 655.965 223.701 656.079 223.995C656.193 224.289 656.383 224.543 656.628 224.73C656.873 224.916 657.163 225.027 657.465 225.049C657.768 225.072 658.07 225.005 658.338 224.857L669.861 218.513L681.385 224.857C681.7 225.033 682.065 225.091 682.415 225.027C683.298 224.868 683.892 223.991 683.739 223.067L681.537 209.628L690.859 200.112C691.112 199.851 691.28 199.511 691.331 199.139C691.468 198.209 690.849 197.348 689.96 197.21Z" fill="white"/>
</g>
<g clip-path="url(#clip4)">
<path d="M669.861 100.279C697.552 100.279 720 77.8304 720 50.1393C720 22.4481 697.552 0 669.861 0C642.17 0 619.722 22.4481 619.722 50.1393C619.722 77.8304 642.17 100.279 669.861 100.279Z" fill="#CA87FF"/>
<path d="M689.96 43.7845L677.077 41.824L671.318 29.5972C671.16 29.2625 670.902 28.9915 670.582 28.8267C669.78 28.4123 668.806 28.7577 668.405 29.5972L662.646 41.824L649.762 43.7845C649.407 43.8378 649.082 44.013 648.834 44.2787C648.533 44.6025 648.367 45.0376 648.373 45.4888C648.379 45.9401 648.555 46.3709 648.864 46.6857L658.186 56.2025L655.983 69.6409C655.932 69.9532 655.965 70.2748 656.079 70.5689C656.193 70.8629 656.383 71.1175 656.628 71.3038C656.873 71.4903 657.163 71.601 657.465 71.6236C657.768 71.6461 658.07 71.5795 658.338 71.4316L669.861 65.0868L681.385 71.4316C681.7 71.6067 682.065 71.6651 682.415 71.6014C683.298 71.442 683.892 70.5653 683.739 69.6409L681.537 56.2025L690.859 46.6857C691.112 46.4254 691.28 46.0855 691.331 45.7134C691.468 44.7837 690.849 43.9227 689.96 43.7845Z" fill="white"/>
</g>
<g clip-path="url(#clip5)">
<path d="M-0.000228882 50.1393C-0.000228882 77.8304 22.4479 100.279 50.139 100.279C77.8302 100.279 100.278 77.8304 100.278 50.1393C100.278 22.4481 77.8302 0 50.139 0C22.4479 0 -0.000228882 22.4481 -0.000228882 50.1393Z" fill="#7CEC94"/>
</g>
<g clip-path="url(#clip6)">
<path d="M206.575 50.0129C206.575 77.6342 228.966 100.026 256.588 100.026C284.209 100.026 306.601 77.6342 306.601 50.0129C306.601 22.3915 284.209 0 256.588 0C228.966 0 206.575 22.3915 206.575 50.0129Z" fill="#467AFF"/>
<path d="M255.199 36.1199C257.757 36.1199 259.83 34.0467 259.83 31.4892C259.83 28.9317 257.757 26.8584 255.199 26.8584C252.642 26.8584 250.568 28.9317 250.568 31.4892C250.568 34.0467 252.642 36.1199 255.199 36.1199Z" fill="white"/>
<path d="M273.675 56.505C273.571 55.9804 273.287 55.5083 272.873 55.1688C272.46 54.8293 271.942 54.6438 271.406 54.6434H261.837L260.844 47.6973H271.406V43.0666H260.184L259.806 40.4221C259.727 39.8706 259.452 39.3663 259.031 39.0014C258.61 38.6365 258.071 38.4355 257.514 38.4355H255.199C254.867 38.4366 254.54 38.509 254.238 38.6468C253.937 38.7851 253.669 38.9864 253.451 39.2367C253.234 39.4874 253.073 39.7814 252.979 40.0995C252.885 40.4171 252.86 40.7516 252.906 41.08L254.937 55.301C255.099 56.4022 255.651 57.409 256.492 58.1378C257.333 58.8669 258.408 59.2702 259.521 59.2741H269.508L271.45 68.9897C271.668 70.0709 272.617 70.8513 273.722 70.8513H280.668V66.2206H275.618L273.675 56.505Z" fill="white"/>
<path d="M263.324 62.747C261.613 66.1647 258.115 68.5356 254.039 68.5356C251.277 68.5327 248.629 67.4339 246.675 65.4807C244.722 63.5274 243.623 60.8789 243.62 58.1163C243.624 56.0416 244.247 54.0152 245.409 52.2965C246.57 50.5778 248.219 49.2448 250.142 48.468L249.473 43.7793C243.4 45.7175 238.989 51.4109 238.989 58.1163C238.989 66.4147 245.741 73.1666 254.039 73.1666C256.62 73.1631 259.158 72.4951 261.406 71.2277C263.655 69.9599 265.539 68.1352 266.878 65.9287L266.244 62.747H263.324Z" fill="white"/>
</g>
<g clip-path="url(#clip7)">
<path d="M464.65 100.026C491.318 100.026 512.938 77.6342 512.938 50.0129C512.938 22.3915 491.318 0 464.65 0C437.981 0 416.361 22.3915 416.361 50.0129C416.361 77.6342 437.981 100.026 464.65 100.026Z" fill="#FFDB5A"/>
<path fill-rule="evenodd" clip-rule="evenodd" d="M473.371 27.9743C473.634 28.132 473.837 28.3772 473.947 28.6699C474.058 28.9626 474.07 29.2855 473.98 29.5859L469.149 45.8456H478.063C478.325 45.8453 478.581 45.9248 478.801 46.0738C479.019 46.2228 479.191 46.4351 479.295 46.6841C479.399 46.9333 479.43 47.2084 479.385 47.4755C479.339 47.7427 479.219 47.9905 479.04 48.1879L457.578 71.8049C457.371 72.0337 457.094 72.1827 456.794 72.2279C456.494 72.2733 456.188 72.2117 455.926 72.0538C455.665 71.8959 455.462 71.6509 455.352 71.3583C455.241 71.0661 455.23 70.7434 455.319 70.4436L460.151 54.1809H451.236C450.975 54.1809 450.718 54.1018 450.499 53.9528C450.28 53.8038 450.108 53.5914 450.004 53.3425C449.901 53.0933 449.869 52.8182 449.915 52.5511C449.96 52.2839 450.08 52.0361 450.26 51.8387L471.721 28.2216C471.929 27.9932 472.205 27.8442 472.504 27.7988C472.804 27.7534 473.109 27.8143 473.371 27.9716V27.9743Z" fill="white"/>
</g>
<defs>
<clipPath id="clip0">
<rect width="100.279" height="100.279" fill="white" transform="translate(206.574 153.426)"/>
</clipPath>
<clipPath id="clip1">
<rect width="100.279" height="100.279" fill="white" transform="translate(413.147 153.426)"/>
</clipPath>
<clipPath id="clip2">
<rect width="100.279" height="100.279" fill="white" transform="translate(0 153.426)"/>
</clipPath>
<clipPath id="clip3">
<rect width="100.279" height="100.279" fill="white" transform="translate(619.722 153.426)"/>
</clipPath>
<clipPath id="clip4">
<rect width="100.279" height="100.279" fill="white" transform="translate(619.722)"/>
</clipPath>
<clipPath id="clip5">
<rect width="100.279" height="100.279" fill="white"/>
</clipPath>
<clipPath id="clip6">
<rect width="100.279" height="100.279" fill="white" transform="translate(206.574)"/>
</clipPath>
<clipPath id="clip7">
<rect width="100.279" height="100.279" fill="white" transform="translate(413.147)"/>
</clipPath>
</defs>
</svg>
