<svg width="496" height="253" viewBox="0 0 496 253" fill="none" xmlns="http://www.w3.org/2000/svg">
<g clip-path="url(#clip0)">
<path d="M0 50C0 77.6142 22.3858 100 50 100C77.6142 100 100 77.6142 100 50C100 22.3858 77.6142 0 50 0C22.3858 0 0 22.3858 0 50Z" fill="#7CEC94"/>
</g>
<path d="M0 204.533C0 231.161 22.3858 252.747 50 252.747C77.6142 252.747 100 231.161 100 204.533C100 177.905 77.6142 156.318 50 156.318C22.3858 156.318 0 177.905 0 204.533Z" fill="#E15554"/>
<path d="M198 49.8739C198 77.4185 220.33 99.7479 247.874 99.7479C275.419 99.7479 297.748 77.4185 297.748 49.8739C297.748 22.3293 275.419 0 247.874 0C220.33 0 198 22.3293 198 49.8739Z" fill="#467AFF"/>
<path d="M246.49 36.0199C249.04 36.0199 251.108 33.9525 251.108 31.4021C251.108 28.8517 249.04 26.7842 246.49 26.7842C243.94 26.7842 241.872 28.8517 241.872 31.4021C241.872 33.9525 243.94 36.0199 246.49 36.0199Z" fill="white"/>
<path d="M264.914 56.3474C264.81 55.8242 264.527 55.3535 264.115 55.0149C263.702 54.6763 263.185 54.4913 262.652 54.491H253.109L252.118 47.5642H262.652V42.9463H251.46L251.084 40.3092C251.005 39.7592 250.73 39.2563 250.31 38.8924C249.89 38.5285 249.354 38.3281 248.798 38.3281H246.489C246.158 38.3292 245.832 38.4013 245.531 38.5388C245.231 38.6767 244.963 38.8774 244.747 39.1271C244.53 39.3771 244.37 39.6703 244.276 39.9874C244.182 40.3042 244.157 40.6378 244.203 40.9653L246.228 55.1467C246.39 56.2449 246.94 57.2488 247.779 57.9756C248.618 58.7028 249.69 59.1049 250.8 59.1088H260.758L262.695 68.7974C262.913 69.8756 263.859 70.6538 264.961 70.6538H271.888V66.036H266.852L264.914 56.3474Z" fill="white"/>
<path d="M254.591 62.5722C252.885 65.9804 249.396 68.3447 245.333 68.3447C242.578 68.3419 239.937 67.2462 237.989 65.2983C236.041 63.3504 234.945 60.7094 234.942 57.9544C234.946 55.8854 235.567 53.8647 236.726 52.1508C237.884 50.4369 239.528 49.1076 241.446 48.3329L240.779 43.6572C234.723 45.5901 230.324 51.2676 230.324 57.9544C230.324 66.2297 237.057 72.9629 245.333 72.9629C247.906 72.9594 250.436 72.2933 252.679 71.0294C254.921 69.7651 256.8 67.9454 258.136 65.7451L257.503 62.5722H254.591Z" fill="white"/>
<path d="M198 202.874C198 230.419 220.33 252.748 247.874 252.748C275.419 252.748 297.748 230.419 297.748 202.874C297.748 175.329 275.419 153 247.874 153C220.33 153 198 175.329 198 202.874Z" fill="#E15554"/>
<path d="M246.49 189.02C249.04 189.02 251.108 186.953 251.108 184.402C251.108 181.852 249.04 179.784 246.49 179.784C243.94 179.784 241.872 181.852 241.872 184.402C241.872 186.953 243.94 189.02 246.49 189.02Z" fill="white"/>
<path d="M264.914 209.347C264.81 208.824 264.527 208.353 264.115 208.015C263.702 207.676 263.185 207.491 262.652 207.491H253.109L252.118 200.564H262.652V195.946H251.46L251.084 193.309C251.005 192.759 250.73 192.256 250.31 191.892C249.89 191.528 249.354 191.328 248.798 191.328H246.489C246.158 191.329 245.832 191.401 245.531 191.539C245.231 191.677 244.963 191.877 244.747 192.127C244.53 192.377 244.37 192.67 244.276 192.987C244.182 193.304 244.157 193.638 244.203 193.965L246.228 208.147C246.39 209.245 246.94 210.249 247.779 210.976C248.618 211.703 249.69 212.105 250.8 212.109H260.758L262.695 221.797C262.913 222.876 263.859 223.654 264.961 223.654H271.888V219.036H266.852L264.914 209.347Z" fill="white"/>
<path d="M254.591 215.572C252.885 218.98 249.396 221.345 245.333 221.345C242.578 221.342 239.937 220.246 237.989 218.298C236.041 216.35 234.945 213.709 234.942 210.954C234.946 208.885 235.567 206.865 236.726 205.151C237.884 203.437 239.528 202.108 241.446 201.333L240.779 196.657C234.723 198.59 230.324 204.268 230.324 210.954C230.324 219.23 237.057 225.963 245.333 225.963C247.906 225.959 250.436 225.293 252.679 224.029C254.921 222.765 256.8 220.945 258.136 218.745L257.503 215.572H254.591Z" fill="white"/>
<path d="M447.359 99.7479C473.954 99.7479 495.513 77.4185 495.513 49.8739C495.513 22.3293 473.954 0 447.359 0C420.764 0 399.205 22.3293 399.205 49.8739C399.205 77.4185 420.764 99.7479 447.359 99.7479Z" fill="#FFDB5A"/>
<path fill-rule="evenodd" clip-rule="evenodd" d="M456.056 27.8967C456.318 28.0539 456.521 28.2984 456.631 28.5903C456.741 28.8822 456.753 29.2042 456.663 29.5037L451.845 45.7183H460.735C460.996 45.718 461.252 45.7973 461.47 45.9458C461.689 46.0944 461.86 46.3062 461.963 46.5544C462.067 46.803 462.098 47.0773 462.053 47.3437C462.007 47.6101 461.888 47.8573 461.709 48.054L440.307 71.6055C440.1 71.8337 439.824 71.9823 439.525 72.0273C439.226 72.0726 438.921 72.0112 438.66 71.8537C438.399 71.6962 438.196 71.4519 438.086 71.1601C437.976 70.8687 437.965 70.5469 438.054 70.248L442.872 54.0305H433.983C433.722 54.0305 433.466 53.9515 433.247 53.803C433.029 53.6544 432.858 53.4426 432.754 53.1944C432.651 52.9458 432.62 52.6715 432.665 52.4051C432.71 52.1387 432.83 51.8915 433.009 51.6948L454.411 28.1433C454.617 27.9155 454.893 27.7669 455.191 27.7216C455.49 27.6764 455.795 27.7371 456.056 27.8939V27.8967Z" fill="white"/>
<path d="M447.359 252.748C473.954 252.748 495.513 230.419 495.513 202.874C495.513 175.329 473.954 153 447.359 153C420.764 153 399.205 175.329 399.205 202.874C399.205 230.419 420.764 252.748 447.359 252.748Z" fill="#E15554"/>
<path fill-rule="evenodd" clip-rule="evenodd" d="M456.056 180.897C456.318 181.054 456.521 181.298 456.631 181.59C456.741 181.882 456.753 182.204 456.663 182.504L451.845 198.718H460.735C460.996 198.718 461.252 198.797 461.47 198.946C461.689 199.094 461.86 199.306 461.963 199.554C462.067 199.803 462.098 200.077 462.053 200.344C462.007 200.61 461.888 200.857 461.709 201.054L440.307 224.605C440.1 224.834 439.824 224.982 439.525 225.027C439.226 225.073 438.921 225.011 438.66 224.854C438.399 224.696 438.196 224.452 438.086 224.16C437.976 223.869 437.965 223.547 438.054 223.248L442.872 207.03H433.983C433.722 207.03 433.466 206.952 433.247 206.803C433.029 206.654 432.858 206.443 432.754 206.194C432.651 205.946 432.62 205.672 432.665 205.405C432.71 205.139 432.83 204.892 433.009 204.695L454.411 181.143C454.617 180.916 454.893 180.767 455.191 180.722C455.49 180.676 455.795 180.737 456.056 180.894V180.897Z" fill="white"/>
<defs>
<clipPath id="clip0">
<rect width="100" height="100" fill="white"/>
</clipPath>
</defs>
</svg>
