<svg width="283" height="101" viewBox="0 0 283 101" fill="none" xmlns="http://www.w3.org/2000/svg">
<path d="M233 101C260.614 101 283 78.6142 283 51C283 23.3858 260.614 1 233 1C205.386 1 183 23.3858 183 51C183 78.6142 205.386 101 233 101Z" fill="#E15554"/>
<path d="M233.419 57.5571H226.75V72.4287H218.38V31.8037H233.475C238.274 31.8037 241.976 32.8733 244.58 35.0124C247.184 37.1516 248.486 40.1743 248.486 44.0805C248.486 46.8521 247.881 49.1679 246.672 51.0281C245.482 52.8696 243.668 54.3391 241.231 55.4365L250.021 72.0381V72.4287H241.036L233.419 57.5571ZM226.75 50.7769H233.503C235.605 50.7769 237.232 50.2468 238.386 49.1865C239.539 48.1076 240.115 46.6289 240.115 44.7501C240.115 42.8342 239.567 41.3275 238.469 40.2301C237.39 39.1326 235.726 38.5839 233.475 38.5839H226.75V50.7769Z" fill="white"/>
<path d="M50 100C77.6142 100 100 77.6142 100 50C100 22.3858 77.6142 0 50 0C22.3858 0 0 22.3858 0 50C0 77.6142 22.3858 100 50 100Z" fill="#CA87FF"/>
<path d="M50.419 56.5571H43.7505V71.4287H35.3799V30.8037H50.4748C55.2739 30.8037 58.9755 31.8733 61.5797 34.0124C64.1839 36.1516 65.4859 39.1743 65.4859 43.0805C65.4859 45.8521 64.8814 48.1679 63.6723 50.0281C62.4819 51.8696 60.6682 53.3391 58.2315 54.4365L67.0205 71.0381V71.4287H58.0362L50.419 56.5571ZM43.7505 49.7769H50.5027C52.6046 49.7769 54.2322 49.2468 55.3855 48.1865C56.5387 47.1076 57.1154 45.6289 57.1154 43.7501C57.1154 41.8342 56.5667 40.3275 55.4692 39.2301C54.3903 38.1326 52.7255 37.5839 50.4748 37.5839H43.7505V49.7769Z" fill="white"/>
</svg>
